<svg xmlns="http://www.w3.org/2000/svg" width="810" viewBox="0 0 810 810" height="810" version="1.0"><path fill="#FFF" d="M-81 -81H891V891H-81z"/><path fill="#FFF" d="M-81 -81H891V891H-81z"/><path fill="#5E17EB" d="M-81 -81H891V891H-81z"/><path transform="matrix(.75 0 0 .75 81 297.577)" fill="none" d="M 190.682302 120.21496 L 196.760427 120.21496 C 201.510428 120.21496 206.343761 120.21496 206.343761 129.803502 L 206.343761 148.97017 C 206.343761 153.412878 198.395844 160.428504 186.239593 160.428504 L 177.901051 160.428504 L 177.901051 148.97017 L 131.614591 148.97017 L 131.614591 206.714964 L 147.90105 206.714964 L 147.90105 223.001423 L 194.500011 223.001423 L 194.500011 206.089964 C 227.072929 202.584756 252.630222 178.35038 252.630222 148.97017 L 252.630222 129.803502 C 252.630222 102.996209 235.098971 73.928499 196.760427 73.928499 L 193.25001 73.928499 C 174.083343 73.928499 173.145843 67.850374 173.145843 56.397248 C 173.145843 52.26704 179.536468 44.240998 182.729177 44.240998 L 199.953136 44.240998 L 199.953136 56.397248 L 246.239596 56.397248 L 246.239596 -2.357963 L 223.250012 -2.357963 L 223.250012 -18.956922 L 176.963551 -18.956922 L 176.963551 -1.732963 C 148.208342 1.772246 126.859382 30.839955 126.859382 56.397248 C 126.859382 95.360792 150.781258 119.282668 190.682302 120.21496 Z M 367.218769 118.657668 L 367.218769 72.371208 L 314.541683 72.371208 L 314.541683 27.329539 L 396.208354 27.329539 L 396.208354 -18.644422 L 268.255223 -18.644422 L 268.255223 222.688923 L 314.541683 222.688923 L 314.541683 118.657668 Z M 471.895858 174.839963 L 521.067735 174.839963 L 530.338569 222.688923 L 577.25003 222.688923 L 530.963569 -18.956922 L 507.354193 -18.956922 L 506.651068 -18.644422 L 496.442734 -18.644422 L 496.130234 -18.956922 L 472.520858 -18.956922 L 472.520858 -18.644422 L 412.208355 222.688923 L 460.052107 222.688923 Z M 499.635443 63.100374 L 512.104193 128.553502 L 483.348983 128.553502 Z M 674.92191 -18.956922 L 674.92191 48.761831 L 642.0417 -18.956922 L 593.182322 -18.956922 L 593.182322 222.688923 L 639.468783 222.688923 L 639.468783 80.944125 L 674.92191 153.725378 L 674.92191 222.688923 L 721.135454 222.688923 L 721.135454 -18.956922 Z M 674.92191 -18.956922" stroke="#FFF" stroke-width="9.176"/></svg>